<svg width="108" height="106" viewBox="0 0 108 106" fill="none" xmlns="http://www.w3.org/2000/svg">
<path d="M53 106C82.271 106 106 82.271 106 53C106 23.7289 82.271 0 53 0C23.7289 0 0 23.7289 0 53C0 82.271 23.7289 106 53 106Z" fill="#34AADF" fill-opacity="0.64"/>
<path d="M26.6932 49.7783C26.6932 49.7783 53.3362 39.3048 62.5764 35.6168C66.1186 34.1418 78.131 29.4212 78.131 29.4212C78.131 29.4212 83.6753 27.3561 83.2132 32.3715C83.0591 34.4368 81.8271 41.6649 80.5952 49.4833C78.747 60.547 76.7449 72.6431 76.7449 72.6431C76.7449 72.6431 76.4369 76.0361 73.8189 76.6261C71.2008 77.2161 66.8885 74.561 66.1186 73.9708C65.5025 73.5284 54.5682 66.89 50.5641 63.6447C49.486 62.7597 48.254 60.9896 50.718 58.9243C56.2622 54.0563 62.8844 48.0082 66.8885 44.1728C68.7367 42.4026 70.5846 38.2722 62.8844 43.2876C51.9501 50.5159 41.1698 57.3016 41.1698 57.3016C41.1698 57.3016 38.7056 58.7767 34.0855 57.449C29.4652 56.1216 24.075 54.3513 24.075 54.3513C24.075 54.3513 20.3791 52.1386 26.6932 49.7783Z" fill="white"/>
</svg>
