<svg width="113" height="106" viewBox="0 0 113 106" fill="none" xmlns="http://www.w3.org/2000/svg">
<mask id="mask0_56_141" style="mask-type:luminance" maskUnits="userSpaceOnUse" x="0" y="0" width="106" height="106">
<path d="M36.7687 0H69.2865C98.9885 0 106 7.06667 106 36.7687V69.2865C106 98.9885 98.9333 106 69.2312 106H36.7135C7.01146 106 0 98.9333 0 69.2312V36.7135C0 7.06667 7.06667 0 36.7687 0Z" fill="white"/>
</mask>
<g mask="url(#mask0_56_141)">
<path d="M-2.76044 -2.76025H108.76V108.761H-2.76044V-2.76025Z" fill="#78A6DA" fill-opacity="0.59"/>
</g>
<path fill-rule="evenodd" clip-rule="evenodd" d="M82.9479 35.5773C83.4228 34.0612 82.9479 33 80.7321 33H73.3459C71.4466 33 70.6025 33.9602 70.1276 35.0214C70.1276 35.0214 66.3818 43.8145 61.0532 49.4744C59.3122 51.142 58.5736 51.6474 57.6239 51.6474C57.1491 51.6474 56.4632 51.142 56.4632 49.626V35.5773C56.4632 33.758 55.9357 33 54.3529 33H42.7461C41.5854 33 40.8468 33.8591 40.8468 34.6171C40.8468 36.3353 43.4847 36.7396 43.8012 41.4899V51.9001C43.8012 54.1741 43.3792 54.5784 42.4295 54.5784C39.9499 54.5784 33.8299 45.7853 30.2423 35.6784C29.5037 33.8086 28.8179 33 26.9186 33H19.5324C17.4221 33 17 33.9602 17 35.0214C17 36.8912 19.4796 46.1896 28.6596 58.4696C34.7796 66.8584 43.3792 71.4066 51.1874 71.4066C55.8829 71.4066 56.4632 70.3959 56.4632 68.6777V62.3103C56.4632 60.2889 56.8853 59.8846 58.4153 59.8846C59.5232 59.8846 61.3698 60.3899 65.7487 64.4327C70.7608 69.2336 71.6049 71.4066 74.4011 71.4066H81.7872C83.8976 71.4066 84.9527 70.3959 84.3196 68.425C83.6338 66.4541 81.2597 63.5736 78.0942 60.1373C76.3531 58.1664 73.768 56.0945 73.0294 55.0332C71.9214 53.6688 72.238 53.0624 73.0294 51.9001C73.0294 51.8495 82.051 39.7211 82.9479 35.5773Z" fill="white"/>
<path d="M36.7687 0H69.2865C98.9885 0 106 7.06667 106 36.7687V69.2865C106 98.9885 98.9333 106 69.2312 106H36.7135C7.01146 106 0 98.9333 0 69.2312V36.7135C0 7.06667 7.06667 0 36.7687 0Z" fill="#78A6DA" fill-opacity="0.26"/>
</svg>
