<svg width="110" height="151" viewBox="0 0 110 151" fill="none" xmlns="http://www.w3.org/2000/svg">
<g clip-path="url(#clip0_61_2)">
<path d="M28.8398 131.888L30.627 132.778C37.9142 137.093 46.2453 139.348 54.724 139.302C80.8257 139.242 102.272 117.841 102.272 91.8553C102.272 79.2969 97.2616 67.2366 88.3526 58.3463C79.4554 49.3642 67.2998 44.3022 54.6317 44.3022C28.6492 44.3022 7.27164 65.5879 7.27164 91.452C7.27164 91.6566 7.27164 91.8582 7.27462 92.0629C7.35288 100.857 9.82334 109.465 14.4233 116.972L15.6147 118.751L10.849 136.247L28.8398 131.888Z" fill="#00E676" fill-opacity="0.36"/>
<path d="M90.7288 53.0529C80.8996 43.1004 67.4157 37.5169 53.3749 37.5826H53.2854C24.3695 37.5827 0.574508 61.1977 0.574508 89.8948C0.574508 90.0294 0.577402 90.1613 0.577402 90.296C0.686318 99.4199 3.06628 108.376 7.5055 116.366L0 143.582L27.9721 136.42C35.6994 140.63 44.3868 142.8 53.2017 142.723C82.2246 142.565 106.017 118.815 105.999 90.0094C106.069 76.1693 100.57 62.8593 90.7288 53.0529ZM53.3749 133.842C45.5611 133.882 37.8849 131.802 31.1763 127.825L29.4442 126.966L12.788 131.263L17.1181 114.934L15.9634 113.215C11.6744 106.342 9.40205 98.4175 9.40193 90.3331C9.40193 66.492 29.1701 46.8734 53.1932 46.8734C77.2162 46.8734 96.9842 66.492 96.9842 90.3331C96.9842 105.345 89.1469 119.331 76.2953 127.252C69.4983 131.573 61.5913 133.861 53.5193 133.842M78.8934 102.042L75.718 100.609C75.718 100.609 71.0992 98.6039 68.2126 97.1716C67.9239 97.1716 67.6353 96.8851 67.3465 96.8851C66.6348 96.9025 65.9394 97.0997 65.3258 97.458C64.711 97.8161 65.0372 97.7445 60.9958 102.328C60.7216 102.864 60.1587 103.199 59.5525 103.188H59.2638C58.8298 103.116 58.4277 102.916 58.1092 102.615L56.6658 102.042C53.5688 100.741 50.7331 98.8968 48.2943 96.5986C47.717 96.0256 46.851 95.4526 46.2736 94.8796C44.1366 92.848 42.2912 90.5345 40.789 88.004L40.5003 87.4311C40.2495 87.0809 40.0548 86.6943 39.9229 86.2851C39.8475 85.7889 39.9496 85.282 40.2116 84.8528C40.4743 84.423 41.3663 83.4202 42.2323 82.5608C43.0983 81.7014 43.0983 81.1285 43.6756 80.5554C43.9724 80.1465 44.1774 79.6792 44.277 79.185C44.3766 78.6909 44.3684 78.1813 44.253 77.6905C42.9077 73.9836 41.366 70.3497 39.6343 66.8042C39.1701 66.0878 38.447 65.5751 37.6136 65.3717H34.4382C33.8609 65.3717 33.2836 65.6582 32.7062 65.6582L32.4175 65.9447C31.8402 66.2311 31.2629 66.8042 30.6855 67.0907C30.1082 67.3771 29.8195 68.2366 29.2422 68.8096C27.2242 71.3404 26.1076 74.4633 26.0668 77.6905C26.0988 79.9606 26.5896 82.2013 27.5101 84.2797L27.7989 85.1391C30.3909 90.639 34.0159 95.5978 38.4797 99.7499L39.6343 100.896C40.4745 101.587 41.2477 102.354 41.9436 103.188C47.9248 108.353 55.029 112.077 62.699 114.074C63.565 114.361 64.7197 114.361 65.5856 114.647H68.4724C69.9811 114.573 71.4569 114.183 72.8024 113.501C73.5096 113.183 74.1851 112.799 74.8231 112.355L75.4004 111.782C75.9778 111.209 76.5551 110.923 77.1324 110.35C77.6966 109.851 78.1831 109.272 78.5758 108.631C79.13 107.347 79.5197 106.001 79.7305 104.62V102.615C79.4711 102.383 79.1794 102.19 78.8644 102.042" fill="white"/>
</g>
<defs>
<clipPath id="clip0_61_2">
<rect width="110" height="151" fill="white"/>
</clipPath>
</defs>
</svg>
